<svg width="166" height="28" viewBox="0 0 166 28" fill="none" xmlns="http://www.w3.org/2000/svg">
<path d="M0.275568 27V0.818181H17.6108V5.3821H5.81108V11.6207H16.4602V16.1847H5.81108V27H0.275568ZM28.6626 27.3835C26.6768 27.3835 24.9595 26.9616 23.5107 26.1179C22.0703 25.2656 20.9581 24.081 20.174 22.5639C19.3899 21.0384 18.9979 19.2699 18.9979 17.2585C18.9979 15.2301 19.3899 13.4574 20.174 11.9403C20.9581 10.4148 22.0703 9.23011 23.5107 8.38636C24.9595 7.53409 26.6768 7.10795 28.6626 7.10795C30.6484 7.10795 32.3615 7.53409 33.8018 8.38636C35.2507 9.23011 36.3672 10.4148 37.1513 11.9403C37.9354 13.4574 38.3274 15.2301 38.3274 17.2585C38.3274 19.2699 37.9354 21.0384 37.1513 22.5639C36.3672 24.081 35.2507 25.2656 33.8018 26.1179C32.3615 26.9616 30.6484 27.3835 28.6626 27.3835ZM28.6882 23.1648C29.5916 23.1648 30.3459 22.9091 30.951 22.3977C31.5561 21.8778 32.0121 21.1705 32.3189 20.2756C32.6342 19.3807 32.7919 18.3622 32.7919 17.2202C32.7919 16.0781 32.6342 15.0597 32.3189 14.1648C32.0121 13.2699 31.5561 12.5625 30.951 12.0426C30.3459 11.5227 29.5916 11.2628 28.6882 11.2628C27.7763 11.2628 27.0092 11.5227 26.3871 12.0426C25.7734 12.5625 25.3089 13.2699 24.9936 14.1648C24.6868 15.0597 24.5334 16.0781 24.5334 17.2202C24.5334 18.3622 24.6868 19.3807 24.9936 20.2756C25.3089 21.1705 25.7734 21.8778 26.3871 22.3977C27.0092 22.9091 27.7763 23.1648 28.6882 23.1648ZM50.7408 27.3835C48.7294 27.3835 46.9993 26.9574 45.5504 26.1051C44.1101 25.2443 43.0021 24.0511 42.2266 22.5256C41.4595 21 41.076 19.2443 41.076 17.2585C41.076 15.2472 41.4638 13.483 42.2393 11.9659C43.0234 10.4403 44.1357 9.25142 45.576 8.39915C47.0163 7.53835 48.7294 7.10795 50.7152 7.10795C52.4283 7.10795 53.9283 7.41903 55.2152 8.04119C56.5021 8.66335 57.5206 9.53693 58.2706 10.6619C59.0206 11.7869 59.4339 13.108 59.5107 14.625H54.3714C54.2266 13.6449 53.843 12.8565 53.2209 12.2599C52.6072 11.6548 51.8018 11.3523 50.8047 11.3523C49.9609 11.3523 49.2237 11.5824 48.593 12.0426C47.9709 12.4943 47.4851 13.1548 47.1357 14.0241C46.7862 14.8935 46.6115 15.946 46.6115 17.1818C46.6115 18.4347 46.782 19.5 47.1229 20.3778C47.4723 21.2557 47.9624 21.9247 48.593 22.3849C49.2237 22.8452 49.9609 23.0753 50.8047 23.0753C51.4268 23.0753 51.9851 22.9474 52.4794 22.6918C52.9822 22.4361 53.3956 22.0653 53.7195 21.5795C54.0518 21.0852 54.2692 20.4929 54.3714 19.8026H59.5107C59.4254 21.3026 59.0163 22.6236 58.2834 23.7656C57.5589 24.8991 56.5575 25.7855 55.2791 26.4247C54.0007 27.0639 52.4879 27.3835 50.7408 27.3835ZM75.5898 18.6392V7.36364H81.0359V27H75.8072V23.4332H75.6026C75.1594 24.5838 74.4222 25.5085 73.391 26.2074C72.3683 26.9062 71.1197 27.2557 69.6452 27.2557C68.3327 27.2557 67.1779 26.9574 66.1808 26.3608C65.1836 25.7642 64.4038 24.9162 63.8413 23.8168C63.2873 22.7173 63.006 21.4006 62.9975 19.8665V7.36364H68.4435V18.8949C68.4521 20.054 68.7631 20.9702 69.3768 21.6435C69.9904 22.3168 70.8129 22.6534 71.8441 22.6534C72.5004 22.6534 73.114 22.5043 73.685 22.206C74.256 21.8991 74.7163 21.4474 75.0657 20.8509C75.4237 20.2543 75.5984 19.517 75.5898 18.6392ZM101.73 12.9631L96.7443 13.2699C96.6591 12.8437 96.4759 12.4602 96.1946 12.1193C95.9134 11.7699 95.5426 11.4929 95.0824 11.2884C94.6307 11.0753 94.0895 10.9688 93.4588 10.9688C92.6151 10.9688 91.9034 11.1477 91.3239 11.5057C90.7443 11.8551 90.4545 12.3239 90.4545 12.9119C90.4545 13.3807 90.642 13.777 91.017 14.1009C91.392 14.4247 92.0355 14.6847 92.9474 14.8807L96.5014 15.5966C98.4105 15.9886 99.8338 16.6193 100.771 17.4886C101.709 18.358 102.178 19.5 102.178 20.9148C102.178 22.2017 101.798 23.331 101.04 24.3026C100.29 25.2741 99.2585 26.0327 97.946 26.5781C96.642 27.1151 95.1378 27.3835 93.4332 27.3835C90.8338 27.3835 88.7628 26.8423 87.2202 25.7599C85.6861 24.669 84.7869 23.1861 84.5227 21.3111L89.8793 21.0298C90.0412 21.8224 90.4332 22.4276 91.0554 22.8452C91.6776 23.2543 92.4744 23.4588 93.446 23.4588C94.4006 23.4588 95.1676 23.2756 95.7472 22.9091C96.3352 22.5341 96.6335 22.0526 96.642 21.4645C96.6335 20.9702 96.4247 20.5653 96.0156 20.25C95.6065 19.9261 94.9759 19.679 94.1236 19.5085L90.723 18.831C88.8054 18.4474 87.3778 17.7827 86.4403 16.8366C85.5114 15.8906 85.0469 14.6847 85.0469 13.2188C85.0469 11.9574 85.3878 10.8707 86.0696 9.95881C86.7599 9.04688 87.7273 8.34375 88.9716 7.84943C90.2244 7.35511 91.6903 7.10795 93.3693 7.10795C95.8494 7.10795 97.8011 7.6321 99.2244 8.6804C100.656 9.72869 101.491 11.1562 101.73 12.9631ZM114.556 27.3835C112.536 27.3835 110.797 26.9744 109.34 26.1562C107.891 25.3295 106.775 24.1619 105.99 22.6534C105.206 21.1364 104.814 19.3423 104.814 17.2713C104.814 15.2514 105.206 13.4787 105.99 11.9531C106.775 10.4276 107.878 9.23864 109.301 8.38636C110.733 7.53409 112.412 7.10795 114.338 7.10795C115.634 7.10795 116.84 7.31676 117.956 7.73438C119.081 8.14347 120.061 8.76136 120.897 9.58807C121.74 10.4148 122.397 11.4545 122.865 12.7074C123.334 13.9517 123.569 15.4091 123.569 17.0795V18.5753H106.988V15.2003H118.442C118.442 14.4162 118.272 13.7216 117.931 13.1165C117.59 12.5114 117.117 12.0384 116.512 11.6974C115.915 11.348 115.221 11.1733 114.428 11.1733C113.601 11.1733 112.868 11.3651 112.229 11.7486C111.598 12.1236 111.104 12.6307 110.746 13.2699C110.388 13.9006 110.205 14.6037 110.196 15.3793V18.5881C110.196 19.5597 110.375 20.3991 110.733 21.1065C111.1 21.8139 111.615 22.3594 112.28 22.7429C112.945 23.1264 113.733 23.3182 114.645 23.3182C115.25 23.3182 115.804 23.233 116.307 23.0625C116.81 22.892 117.24 22.6364 117.598 22.2955C117.956 21.9545 118.229 21.5369 118.417 21.0426L123.453 21.375C123.198 22.5852 122.674 23.642 121.881 24.5455C121.097 25.4403 120.083 26.1392 118.838 26.642C117.603 27.1364 116.175 27.3835 114.556 27.3835ZM136.071 27.3835C134.051 27.3835 132.313 26.9744 130.855 26.1562C129.407 25.3295 128.29 24.1619 127.506 22.6534C126.722 21.1364 126.33 19.3423 126.33 17.2713C126.33 15.2514 126.722 13.4787 127.506 11.9531C128.29 10.4276 129.394 9.23864 130.817 8.38636C132.249 7.53409 133.928 7.10795 135.854 7.10795C137.15 7.10795 138.355 7.31676 139.472 7.73438C140.597 8.14347 141.577 8.76136 142.412 9.58807C143.256 10.4148 143.912 11.4545 144.381 12.7074C144.85 13.9517 145.084 15.4091 145.084 17.0795V18.5753H128.503V15.2003H139.958C139.958 14.4162 139.787 13.7216 139.446 13.1165C139.105 12.5114 138.632 12.0384 138.027 11.6974C137.431 11.348 136.736 11.1733 135.944 11.1733C135.117 11.1733 134.384 11.3651 133.745 11.7486C133.114 12.1236 132.62 12.6307 132.262 13.2699C131.904 13.9006 131.721 14.6037 131.712 15.3793V18.5881C131.712 19.5597 131.891 20.3991 132.249 21.1065C132.615 21.8139 133.131 22.3594 133.796 22.7429C134.461 23.1264 135.249 23.3182 136.161 23.3182C136.766 23.3182 137.32 23.233 137.823 23.0625C138.326 22.892 138.756 22.6364 139.114 22.2955C139.472 21.9545 139.745 21.5369 139.932 21.0426L144.969 21.375C144.713 22.5852 144.189 23.642 143.397 24.5455C142.613 25.4403 141.598 26.1392 140.354 26.642C139.118 27.1364 137.691 27.3835 136.071 27.3835ZM164.976 12.9631L159.99 13.2699C159.905 12.8437 159.722 12.4602 159.441 12.1193C159.159 11.7699 158.789 11.4929 158.328 11.2884C157.877 11.0753 157.336 10.9688 156.705 10.9688C155.861 10.9688 155.15 11.1477 154.57 11.5057C153.99 11.8551 153.701 12.3239 153.701 12.9119C153.701 13.3807 153.888 13.777 154.263 14.1009C154.638 14.4247 155.282 14.6847 156.194 14.8807L159.748 15.5966C161.657 15.9886 163.08 16.6193 164.017 17.4886C164.955 18.358 165.424 19.5 165.424 20.9148C165.424 22.2017 165.044 23.331 164.286 24.3026C163.536 25.2741 162.505 26.0327 161.192 26.5781C159.888 27.1151 158.384 27.3835 156.679 27.3835C154.08 27.3835 152.009 26.8423 150.466 25.7599C148.932 24.669 148.033 23.1861 147.769 21.3111L153.125 21.0298C153.287 21.8224 153.679 22.4276 154.301 22.8452C154.924 23.2543 155.721 23.4588 156.692 23.4588C157.647 23.4588 158.414 23.2756 158.993 22.9091C159.581 22.5341 159.88 22.0526 159.888 21.4645C159.88 20.9702 159.671 20.5653 159.262 20.25C158.853 19.9261 158.222 19.679 157.37 19.5085L153.969 18.831C152.051 18.4474 150.624 17.7827 149.686 16.8366C148.757 15.8906 148.293 14.6847 148.293 13.2188C148.293 11.9574 148.634 10.8707 149.316 9.95881C150.006 9.04688 150.973 8.34375 152.218 7.84943C153.471 7.35511 154.936 7.10795 156.615 7.10795C159.096 7.10795 161.047 7.6321 162.471 8.6804C163.902 9.72869 164.738 11.1562 164.976 12.9631Z" fill="black"/>
</svg>
